#!OML:ASF X:\für Bonn\!DataBase\2005_08_11_Bastian_Final\c3d\Bastian.ASF
:FULLY-SPECIFIED
:DEGREES
121
root -1.84925 17.0673 1.54526 164.342 -53.7465 -174.92
lowerback 6.33969 -1.96392 0.15867
upperback -0.508732 -2.59482 0.442554
thorax -4.06605 -1.28905 0.621054
lowerneck 8.73532 -18.6292 -9.42286
upperneck -5.2609 -25.7729 15.0079
head 0.231753 -13.3192 5.75611
rclavicle 8.64465e-014 8.54774e-015
rhumerus 20.7697 -26.9537 -29.2443
rradius 101.97
rwrist -234.511
rhand -8.46791 -70.0106
rfingers 7.12502
rthumb 17.4586 -260.753
lclavicle 8.64465e-014 8.54774e-015
lhumerus 443.471 -7.19826 -305.983
lradius 83.0036
lwrist -146.581
lhand -11.8444 47.6999
lfingers 7.12502
lthumb 14.207 77.194
rfemur -5.34093 -13.54 11.9767
rtibia 44.0061
rfoot -16.856 -2.49355
rtoes -11.8485
lfemur 12.9677 -14.8613 -4.8367
ltibia 35.2357
lfoot -5.03991 -0.591016
ltoes -43.455
122
root -1.83367 17.1441 1.44329 164.435 -54.2494 -174.956
lowerback 6.22686 -2.05273 0.159537
upperback -0.595608 -2.71446 0.384575
thorax -4.09463 -1.34841 0.569985
lowerneck 8.46227 -18.6262 -9.24695
upperneck -5.14911 -25.7463 14.9158
head 0.269196 -13.296 5.68088
rclavicle 4.17199e-014 8.74653e-015
rhumerus 21.1948 -27.2701 -29.0357
rradius 101.276
rwrist -234.557
rhand -8.65934 -70.4259
rfingers 7.12502
rthumb 17.2743 -260.322
lclavicle 4.17199e-014 8.74653e-015
lhumerus 443.782 -7.06714 -305.992
lradius 82.8793
lwrist -146.766
lhand -12.1861 47.9543
lfingers 7.12502
lthumb 13.8777 77.4713
rfemur -4.60977 -13.4038 12.2685
rtibia 43.0641
rfoot -16.5393 -3.01876
rtoes -10.7596
lfemur 12.8509 -14.0349 -4.58196
ltibia 34.901
lfoot -3.51855 0.626865
ltoes -43.8202
123
root -1.81909 17.2232 1.34407 164.583 -54.7506 -175.012
lowerback 6.09097 -2.13672 0.159434
upperback -0.697081 -2.82771 0.331598
thorax -4.12533 -1.40459 0.523236
lowerneck 8.18627 -18.6275 -9.07355
upperneck -5.01828 -25.728 14.8155
head 0.313019 -13.2761 5.60174
rclavicle -2.19409e-014 -3.20043e-014
rhumerus 21.6432 -27.5892 -28.8152
rradius 100.483
rwrist -234.652
rhand -8.88024 -70.8751
rfingers 7.12502
rthumb 17.0617 -259.854
lclavicle -2.19409e-014 -3.20043e-014
lhumerus 444.08 -7.00014 -305.974
lradius 82.7734
lwrist -147.066
lhand -12.457 48.2763
lfingers 7.12502
lthumb 13.6166 77.8109
rfemur -3.93939 -13.2207 12.5666
rtibia 42.112
rfoot -16.2074 -3.57229
rtoes -9.7832
lfemur 12.6712 -13.2015 -4.36454
ltibia 34.6015
lfoot -2.04206 1.80331
ltoes -43.7223
124
root -1.80491 17.3005 1.24945 164.687 -55.2322 -175.048
lowerback 5.9822 -2.22281 0.189549
upperback -0.774397 -2.94147 0.291438
thorax -4.1473 -1.46183 0.473207
lowerneck 7.87695 -18.6172 -8.92739
upperneck -4.8896 -25.6944 14.7321
head 0.365309 -13.2474 5.52703
rclavicle 6.88292e-015 9.34288e-015
rhumerus 22.1796 -27.8988 -28.5971
rradius 99.6102
rwrist -234.67
rhand -9.07932 -71.3302
rfingers 7.12502
rthumb 16.8701 -259.383
lclavicle 6.88292e-015 9.34288e-015
lhumerus 444.401 -6.92646 -305.952
lradius 82.6643
lwrist -147.479
lhand -12.6098 48.7043
lfingers 7.12502
lthumb 13.4693 78.2488
rfemur -3.25753 -13.0464 12.8642
rtibia 41.159
rfoot -15.8623 -4.11826
rtoes -8.98681
lfemur 12.482 -12.2997 -4.14329
ltibia 34.3516
lfoot -0.707226 2.88263
ltoes -43.6559
125
root -1.79066 17.3775 1.16022 164.79 -55.6801 -175.061
lowerback 5.89252 -2.3036 0.277517
upperback -0.872507 -3.04418 0.245802
thorax -4.20527 -1.51496 0.385535
lowerneck 7.60747 -18.6115 -8.74263
upperneck -4.77787 -25.6651 14.6272
head 0.399414 -13.2224 5.44872
rclavicle -1.2275e-014 -1.49089e-014
rhumerus 22.7637 -28.1904 -28.428
rradius 98.6093
rwrist -234.671
rhand -9.28871 -71.8998
rfingers 7.12502
rthumb 16.6685 -258.796
lclavicle -1.2275e-014 -1.49089e-014
lhumerus 444.753 -6.85876 -305.985
lradius 82.5344
lwrist -147.988
lhand -12.512 49.1528
lfingers 7.12502
lthumb 13.5636 78.691
rfemur -2.63107 -12.8101 13.1932
rtibia 40.2047
rfoot -15.4749 -4.7108
rtoes -8.32686
lfemur 12.251 -11.3845 -3.93838
ltibia 34.1564
lfoot 0.423879 3.85207
ltoes -43.4317
126
root -1.77664 17.4527 1.07452 164.921 -56.1297 -175.101
lowerback 5.79398 -2.38998 0.348491
upperback -0.959149 -3.15609 0.196954
thorax -4.24609 -1.57254 0.304121
lowerneck 7.34488 -18.605 -8.53784
upperneck -4.69638 -25.632 14.5368
head 0.422724 -13.1971 5.3752
rclavicle -6.60959e-014 -3.02153e-014
rhumerus 23.4152 -28.4786 -28.3199
rradius 97.514
rwrist -234.558
rhand -9.4605 -72.5329
rfingers 7.12502
rthumb 16.5031 -258.149
lclavicle -6.60959e-014 -3.02153e-014
lhumerus 445.124 -6.79169 -306.029
lradius 82.341
lwrist -148.665
lhand -12.1581 49.7663
lfingers 7.12502
lthumb 13.9047 79.2814
rfemur -2.02866 -12.5187 13.5148
rtibia 39.2535
rfoot -15.056 -5.3468
rtoes -7.71201
lfemur 11.9758 -10.4507 -3.77319
ltibia 34.0219
lfoot 1.40936 4.59245
ltoes -43.0936
127
root -1.76364 17.5273 0.991097 165.042 -56.5301 -175.125
lowerback 5.69451 -2.4706 0.416194
upperback -1.0504 -3.25924 0.190903
thorax -4.28892 -1.62539 0.267813
lowerneck 7.12101 -18.5864 -8.41122
upperneck -4.65223 -25.5864 14.4659
head 0.439956 -13.1659 5.32149
rclavicle -5.59082e-015 -1.10325e-014
rhumerus 24.1814 -28.7472 -28.2113
rradius 96.3229
rwrist -234.374
rhand -9.60638 -73.2055
rfingers 7.12502
rthumb 16.3627 -257.465
lclavicle -5.59082e-015 -1.10325e-014
lhumerus 445.464 -6.69853 -306.045
lradius 82.0719
lwrist -149.425
lhand -11.5794 50.5123
lfingers 7.12502
lthumb 14.4623 79.9884
rfemur -1.44816 -12.1906 13.8569
rtibia 38.3033
rfoot -14.6159 -5.98293
rtoes -7.23501
lfemur 11.6814 -9.48405 -3.62202
ltibia 33.9565
lfoot 2.21994 4.94565
ltoes -42.3734
128
root -1.74964 17.6003 0.911104 165.148 -56.9465 -175.156
lowerback 5.6108 -2.55309 0.491369
upperback -1.12429 -3.36545 0.159855
thorax -4.32486 -1.68034 0.202048
lowerneck 6.95263 -18.5741 -8.25975
upperneck -4.65313 -25.5508 14.4473
head 0.440576 -13.145 5.28683
rclavicle -7.91908e-014 -1.02374e-014
rhumerus 24.9758 -29.0408 -28.166
rradius 94.997
rwrist -234.195
rhand -9.81085 -73.901
rfingers 7.12502
rthumb 16.1658 -256.753
lclavicle -7.91908e-014 -1.02374e-014
lhumerus 445.868 -6.64207 -306.088
lradius 81.6506
lwrist -150.294
lhand -10.7235 51.4646
lfingers 7.12502
lthumb 15.2868 80.8797
rfemur -0.860509 -11.7488 14.223
rtibia 37.3543
rfoot -14.1275 -6.75195
rtoes -6.86498
lfemur 11.3613 -8.54655 -3.52389
ltibia 33.9601
lfoot 2.94047 4.84089
ltoes -41.4585
129
root -1.73615 17.6706 0.833901 165.305 -57.3101 -175.211
lowerback 5.48451 -2.62604 0.558736
upperback -1.20123 -3.4595 0.142125
thorax -4.33894 -1.72913 0.151081
lowerneck 6.78856 -18.5542 -8.136
upperneck -4.66911 -25.5063 14.4472
head 0.441046 -13.1201 5.26149
rclavicle 1.0148e-013 2.51463e-014
rhumerus 25.8829 -29.2985 -28.1008
rradius 93.4669
rwrist -234.034
rhand -9.92857 -74.7036
rfingers 7.12502
rthumb 16.0524 -255.941
lclavicle 1.0148e-013 2.51463e-014
lhumerus 446.309 -6.58241 -306.108
lradius 81.0581
lwrist -151.136
lhand -9.82854 52.5616
lfingers 7.12502
lthumb 16.1488 81.9088
rfemur -0.335691 -10.935 14.6894
rtibia 36.4157
rfoot -13.6305 -7.81333
rtoes -6.57058
lfemur 10.9886 -7.55667 -3.46575
ltibia 34.0348
lfoot 3.58629 4.30277
ltoes -40.7442
130
root -1.72265 17.738 0.759365 165.396 -57.6622 -175.23
lowerback 5.38647 -2.69877 0.636623
upperback -1.26303 -3.55217 0.134862
thorax -4.3535 -1.77744 0.105738
lowerneck 6.66881 -18.536 -8.00066
upperneck -4.72167 -25.4614 14.4409
head 0.421624 -13.097 5.24072
rclavicle -7.00716e-015 1.15295e-014
rhumerus 26.9017 -29.5333 -28.0361
rradius 91.5811
rwrist -233.957
rhand -10.1003 -75.591
rfingers 7.12502
rthumb 15.887 -255.041
lclavicle -7.00716e-015 1.15295e-014
lhumerus 446.768 -6.53515 -306.096
lradius 80.3011
lwrist -152.015
lhand -8.84199 53.8114
lfingers 7.12502
lthumb 17.0985 83.079
rfemur 0.207578 -9.89492 15.2431
rtibia 35.4967
rfoot -13.1163 -9.10255
rtoes -6.34024
lfemur 10.6255 -6.62719 -3.44445
ltibia 34.1717
lfoot 4.18615 3.38853
ltoes -40.3258
131
root -1.7089 17.8033 0.686506 165.551 -58.0062 -175.284
lowerback 5.26712 -2.76916 0.68585
upperback -1.33771 -3.64384 0.134192
thorax -4.36741 -1.82455 0.0821971
lowerneck 6.57623 -18.5227 -7.90248
upperneck -4.77992 -25.4291 14.4706
head 0.407148 -13.0817 5.23486
rclavicle -6.3549e-014 -1.95803e-014
rhumerus 28.0917 -29.7482 -27.9965
rradius 89.4402
rwrist -233.983
rhand -10.3283 -76.3552
rfingers 7.12502
rthumb 15.6675 -254.259
lclavicle -6.3549e-014 -1.95803e-014
lhumerus 447.257 -6.51776 -305.971
lradius 79.2976
lwrist -152.809
lhand -8.18011 55.2578
lfingers 7.12502
lthumb 17.7355 84.469
rfemur 0.69553 -8.64812 15.8406
rtibia 34.6088
rfoot -12.6026 -10.5419
rtoes -5.97063
lfemur 10.1953 -5.64798 -3.44537
ltibia 34.3646
lfoot 4.7665 2.02257
ltoes -40.2123
132
root -1.69629 17.8666 0.615571 165.679 -58.2859 -175.316
lowerback 5.15815 -2.83051 0.744124
upperback -1.39588 -3.72199 0.158495
thorax -4.36898 -1.86494 0.0779556
lowerneck 6.43019 -18.5173 -7.75836
upperneck -4.85571 -25.3943 14.4298
head 0.380333 -13.0615 5.20243
rclavicle 1.62879e-014 1.31198e-014
rhumerus 29.4624 -29.9498 -27.9995
rradius 87.0483
rwrist -234.139
rhand -10.6079 -76.9649
rfingers 7.12502
rthumb 15.3982 -253.629
lclavicle 1.62879e-014 1.31198e-014
lhumerus 447.719 -6.49665 -305.73
lradius 78.1002
lwrist -153.623
lhand -7.74156 56.7592
lfingers 7.12502
lthumb 18.1575 85.9317
rfemur 1.16101 -7.19811 16.5104
rtibia 33.7714
rfoot -12.0976 -12.1344
rtoes -5.63185
lfemur 9.77996 -4.60598 -3.44341
ltibia 34.5892
lfoot 5.31111 0.393818
ltoes -40.5025
